<svg t="1594469542586" class="icon" viewBox="0 0 1024 1024" version="1.1" xmlns="http://www.w3.org/2000/svg" p-id="5975" width="16" height="16"><path d="M204.21559 574.738903l27.238364 0 4.136204 0 594.510202 0 11.30344 0 11.79872 0c21.462824 0 31.564903-15.896038 22.414499-35.320437l-76.54842-162.779364c-9.149381-19.423375-34.195823-35.320437-55.658647-35.320437L609.165482 341.318666 609.165482 219.938178 609.165482 102.82897c0-21.482267-17.574261-39.037085-39.036062-39.037085l-78.073146 0c-21.462824 0-39.037085 17.554818-39.037085 39.037085l0 117.110231 0 121.380488L314.007135 341.319689c-21.481244 0-46.508243 15.897062-55.639205 35.320437L181.781648 539.418466C172.65171 558.841841 182.734346 574.738903 204.21559 574.738903zM834.942645 632.531144 236.848824 632.531144c3.25923 60.175521 1.849114 132.6256-48.090275 175.608553-69.934792 60.175521-46.356794 126.030391 3.25923 152.067394l101.537558 0c9.987468-13.628392 65.036225-91.625814 81.237209-170.443927 2.51631-16.353456 4.060479-27.181059 4.060479-27.181059-0.705058 8.996908-2.211365 18.088984-4.060479 27.181059-7.757684 50.130747-25.007557 153.440671-37.606503 170.443927l73.479525 0c9.988492-13.628392 65.036225-91.625814 81.238232-170.443927 2.515287-16.353456 4.059456-27.181059 4.059456-27.181059-0.705058 8.996908-2.211365 18.088984-4.059456 27.181059-7.758708 50.130747-25.007557 153.440671-37.607526 170.443927l92.597955 0c9.968026-13.628392 65.036225-91.625814 81.217766-170.443927 2.535753-16.353456 4.078899-27.181059 4.078899-27.181059-0.685615 8.996908-2.210341 18.088984-4.078899 27.181059-7.739265 50.130747-24.968671 153.440671-37.58706 170.443927l92.998067 0c9.969049-13.628392 65.036225-91.625814 81.21879-170.443927 2.535753-16.353456 4.078899-27.181059 4.078899-27.181059-0.686638 8.996908-2.211365 18.088984-4.078899 27.181059-7.739265 50.130747-24.989137 153.440671-37.607526 170.443927l93.53121 0c0 0 61.701271-22.13002 52.055586-93.513814C858.958618 764.910127 853.469604 708.336644 834.942645 632.531144z" p-id="5976"></path></svg>
