<svg t="1594622462425" class="icon" viewBox="0 0 1024 1024" version="1.1" xmlns="http://www.w3.org/2000/svg" p-id="1739" width="128" height="128"><path d="M903.795802 59.184961 122.373607 59.184961c-40.674375-0.509606-59.093886 32.747845-59.544141 59.544141L62.829466 900.151297c0.449231 31.914874 22.961968 59.032488 59.544141 59.544141l781.422196 0c26.224268-0.125867 59.737546-27.755134 59.544141-59.544141L963.339944 118.728078C962.765869 87.497796 938.20652 58.845223 903.795802 59.184961zM833.203024 589.114308c0 30.40652-24.827455 55.143924-55.462173 55.143924-5.121648 0-9.738805-1.601474-14.44806-2.882654-29.491685 48.467875-72.655763 87.837534-124.32454 112.39279 0 0.228197 0.1361 0.410346 0.1361 0.639566 0 30.405497-24.781406 55.143924-55.416124 55.143924-30.679743 0-55.506175-24.738427-55.506175-55.143924 0-30.407544 24.873504-55.051827 55.506175-55.051827 17.32969 0 32.095999 8.319479 42.295292 20.664645 42.659589-27.616988 77.274968-69.635987 99.04069-117.418246-1.143033-4.437056-2.743484-8.68787-2.743484-13.44215l0-82.669838c0-18.837021 10.100032-34.658358 24.596188-44.580335C731.560066 347.280448 633.846604 258.529101 514.32444 258.529101c-119.523187 0-217.234603 88.796372-232.55145 203.335035 14.494109 9.968026 24.600281 25.742291 24.600281 44.579311l0 110.197798c0 30.449499-24.784476 27.615964-55.419194 27.615964s-55.462173-24.737404-55.462173-55.143924L195.491904 506.444471c0-21.12411 12.390191-38.910195 29.994128-48.14758 17.146519-143.480832 139.825582-254.865665 288.886503-254.865665 148.96473 0 271.735891 111.337761 288.88241 254.865665 17.560958 9.236362 29.950126 27.02347 29.950126 48.146557L833.205071 589.114308z" p-id="1740"></path></svg>
