<svg t="1594622653060" class="icon" viewBox="0 0 1188 1024" version="1.1" xmlns="http://www.w3.org/2000/svg" p-id="8201" width="128" height="128"><path d="M848.292618 676.549459A471.862235 471.862235 0 0 0 578.862101 500.654118a261.843813 261.843813 0 1 0-215.298358 0C160.465625 548.036844 7.860099 726.597784 0 942.032839h803.09705a225.550661 225.550661 0 0 1 45.229742-265.48338z" p-id="8202"></path><path d="M704.640769 475.023361a20.914698 20.914698 0 0 0-4.545188 4.801495c-0.615138 0.649313-1.247364 1.281538-1.879588 1.913764 0.153785 0.170872 0.341743 0.290482 0.495527 0.444266a20.504606 20.504606 0 0 0 15.651849 29.458283 514.819383 514.819383 0 0 1 164.310239 140.559071 225.772794 225.772794 0 0 1 207.335737-22.486717c4.459752 3.041516 9.278334 6.202643 13.943131 9.295421 11.875584 7.825924 21.905754 16.232813 26.826859 16.232813a20.504606 20.504606 0 0 0 20.504606-20.504606c0-7.877186-21.085569-29.048191-37.762649-41.248431a389.43372 389.43372 0 0 0-155.493258-91.313843A216.323588 216.323588 0 0 0 750.588172 121.318916a307.398211 307.398211 0 0 1-45.947403 353.704445zM1003.854225 655.22467A184.387665 184.387665 0 1 0 1188.24189 839.612335a184.387665 184.387665 0 0 0-184.387665-184.387665z m102.38633 204.875183h-81.898812v81.864638a20.504606 20.504606 0 1 1-41.009211 0v-81.864638h-81.881724a20.504606 20.504606 0 1 1 0-41.009211h81.915899v-81.881725a20.504606 20.504606 0 1 1 41.009211 0v81.915899h81.898812a20.504606 20.504606 0 1 1 0 41.009211z" p-id="8203"></path></svg>
