<svg t="1594625016317" class="icon" viewBox="0 0 1024 1024" version="1.1" xmlns="http://www.w3.org/2000/svg" p-id="5394" width="128" height="128"><path d="M512 0a512 512 0 1 0 512 512A512 512 0 0 0 512 0z m371.057929 261.488217a443.728144 443.728144 0 0 1 75.706249 218.477725h-256.155694a1235.432568 1235.432568 0 0 0-16.075414-173.053976 1110.565912 1110.565912 0 0 0 196.524859-45.423749zM838.996503 206.294663a1061.522275 1061.522275 0 0 1-164.91896 37.600122 1050.351224 1050.351224 0 0 0-52.235366-165.736354A448.788201 448.788201 0 0 1 838.996503 206.294663zM385.342861 480.043789a1113.212711 1113.212711 0 0 1 16.46465-164.996807c36.004257 3.152805 72.631291 4.982211 109.997871 4.982211s73.954691-1.829406 109.997872-4.982211a1103.287213 1103.287213 0 0 1 16.542496 164.996807z m253.002889 63.990269a1103.481831 1103.481831 0 0 1-16.464649 164.996807q-54.882165-4.982211-109.997872-5.060058c-37.366581 0-73.954691 1.829406-109.997871 4.982211a1112.200699 1112.200699 0 0 1-16.464649-164.91896zM480.900106 65.54721c10.314733-0.6617 20.551619-1.518017 31.138818-1.518017s20.78516 0.895241 31.138817 1.518017a959.270184 959.270184 0 0 1 65.625057 186.832903c-31.800517 2.76357-64.068116 4.476205-96.686027 4.476204s-64.88551-1.673711-96.686027-4.476204a959.23126 959.23126 0 0 1 65.469362-186.832903z m-78.781207 12.572297a1032.874563 1032.874563 0 0 0-52.157518 165.736354 1052.180629 1052.180629 0 0 1-164.996807-37.600121 449.099589 449.099589 0 0 1 217.154325-128.136233z m-261.176828 183.36871A1124.889767 1124.889767 0 0 0 337.46693 306.911966a1224.650753 1224.650753 0 0 0-16.075414 173.131823H65.235822a443.728144 443.728144 0 0 1 75.706249-218.555572z m0 501.023566a443.728144 443.728144 0 0 1-75.706249-218.477725h256.155694a1235.588262 1235.588262 0 0 0 16.036491 173.053976 1119.245857 1119.245857 0 0 0-196.447013 45.423749z m44.022503 55.232477a1068.10035 1068.10035 0 0 1 164.91896-37.600121A1040.270032 1040.270032 0 0 0 402.079976 945.841569a449.255284 449.255284 0 0 1-217.076479-128.136232z m358.096396 140.70853c-10.314733 0.6617-20.551619 1.518017-31.138817 1.518017s-20.78516-0.895241-31.138817-1.518017a951.057321 951.057321 0 0 1-65.625057-186.832903c31.800517-2.76357 64.068116-4.476205 96.686027-4.476204s64.88551 1.595864 96.686027 4.476204a957.518626 957.518626 0 0 1-65.469363 186.832903z m78.781207-12.572297a1047.899042 1047.899042 0 0 0 52.235366-165.736354 1061.522275 1061.522275 0 0 1 164.91896 37.600121 448.788201 448.788201 0 0 1-217.154326 128.097309z m261.176829-183.36871a1130.22229 1130.22229 0 0 0-196.52486-45.423749 1246.564695 1246.564695 0 0 0 16.075415-173.053976h256.155694a443.728144 443.728144 0 0 1-75.667326 218.477725z" p-id="5395"></path></svg>
